<svg width="24" height="24" viewBox="0 0 24 24" fill="none" xmlns="http://www.w3.org/2000/svg">
<rect x="0.5" y="0.5" width="23" height="23" rx="5.5" stroke="#2C33D2"/>
<path d="M12 17.2678H18" stroke="#2C33D2" stroke-linecap="round" stroke-linejoin="round"/>
<path d="M15 6.26776C15.2652 6.00254 15.6249 5.85355 16 5.85355C16.1857 5.85355 16.3696 5.89013 16.5412 5.9612C16.7128 6.03227 16.8687 6.13644 17 6.26776C17.1313 6.39908 17.2355 6.55498 17.3066 6.72656C17.3776 6.89814 17.4142 7.08204 17.4142 7.26776C17.4142 7.45348 17.3776 7.63738 17.3066 7.80896C17.2355 7.98054 17.1313 8.13644 17 8.26776L8.66667 16.6011L6 17.2678L6.66667 14.6011L15 6.26776Z" stroke="#2C33D2" stroke-linecap="round" stroke-linejoin="round"/>
</svg>
